<?xml version="1.0" encoding="UTF-8"?>
<svg width="410px" height="184px" viewBox="0 0 410 184" version="1.1" xmlns="http://www.w3.org/2000/svg" xmlns:xlink="http://www.w3.org/1999/xlink">
    <title>Group</title>
    <defs>
        <path d="M20,0 L104,0 C115.045695,-3.55271368e-15 124,8.954305 124,20 L124,104 C124,115.045695 115.045695,124 104,124 L20,124 C8.954305,124 0,115.045695 0,104 L0,20 C0,8.954305 8.954305,0 20,0 Z" id="path-1"></path>
        <filter x="-2.6%" y="-1.8%" width="106.0%" height="106.0%" filterUnits="objectBoundingBox" id="filter-2">
            <feOffset dx="0.5" dy="1.5" in="SourceAlpha" result="shadowOffsetOuter1"></feOffset>
            <feGaussianBlur stdDeviation="1" in="shadowOffsetOuter1" result="shadowBlurOuter1"></feGaussianBlur>
            <feColorMatrix values="0 0 0 0 0.656957654   0 0 0 0 0.656957654   0 0 0 0 0.656957654  0 0 0 1 0" type="matrix" in="shadowBlurOuter1"></feColorMatrix>
        </filter>
        <path d="M20,0 L104,0 C115.045695,-3.55271368e-15 124,8.954305 124,20 L124,104 C124,115.045695 115.045695,124 104,124 L20,124 C8.954305,124 0,115.045695 0,104 L0,20 C0,8.954305 8.954305,0 20,0 Z" id="path-3"></path>
        <filter x="-2.6%" y="-1.8%" width="106.0%" height="106.0%" filterUnits="objectBoundingBox" id="filter-4">
            <feOffset dx="0.5" dy="1.5" in="SourceAlpha" result="shadowOffsetOuter1"></feOffset>
            <feGaussianBlur stdDeviation="1" in="shadowOffsetOuter1" result="shadowBlurOuter1"></feGaussianBlur>
            <feColorMatrix values="0 0 0 0 0.656957654   0 0 0 0 0.656957654   0 0 0 0 0.656957654  0 0 0 1 0" type="matrix" in="shadowBlurOuter1"></feColorMatrix>
        </filter>
        <path d="M20,0 L104,0 C115.045695,-3.55271368e-15 124,8.954305 124,20 L124,104 C124,115.045695 115.045695,124 104,124 L20,124 C8.954305,124 0,115.045695 0,104 L0,20 C0,8.954305 8.954305,0 20,0 Z" id="path-5"></path>
        <filter x="-2.6%" y="-1.8%" width="106.0%" height="106.0%" filterUnits="objectBoundingBox" id="filter-6">
            <feOffset dx="0.5" dy="1.5" in="SourceAlpha" result="shadowOffsetOuter1"></feOffset>
            <feGaussianBlur stdDeviation="1" in="shadowOffsetOuter1" result="shadowBlurOuter1"></feGaussianBlur>
            <feColorMatrix values="0 0 0 0 0.656957654   0 0 0 0 0.656957654   0 0 0 0 0.656957654  0 0 0 1 0" type="matrix" in="shadowBlurOuter1"></feColorMatrix>
        </filter>
    </defs>
    <g id="Logo" stroke="none" stroke-width="1" fill="none" fill-rule="evenodd">
        <g id="Frame" transform="translate(-70, -703)">
            <g id="Group" transform="translate(72, 704)">
                <g transform="translate(208, 17)" fill-rule="nonzero">
                    <g id="nuitral">
                        <path d="M29.32,63.328 C29.32,60.64 28.564,58.672 27.052,57.424 C25.54,56.176 23.512,55.552 20.968,55.552 C19.048,55.552 17.344,55.792 15.856,56.272 C14.368,56.752 13.096,57.304 12.04,57.928 L12.04,84.856 C11.8,84.952 11.44,85.06 10.96,85.18 C10.48,85.3 9.952,85.36 9.376,85.36 C7.312,85.36 6.28,84.496 6.28,82.768 L6.28,58.216 C6.28,57.208 6.484,56.38 6.892,55.732 C7.3,55.084 8.008,54.448 9.016,53.824 C10.264,53.056 11.92,52.36 13.984,51.736 C16.048,51.112 18.376,50.8 20.968,50.8 C25.336,50.8 28.78,51.784 31.3,53.752 C33.82,55.72 35.08,58.816 35.08,63.04 L35.08,84.856 C34.84,84.952 34.468,85.06 33.964,85.18 C33.46,85.3 32.944,85.36 32.416,85.36 C30.352,85.36 29.32,84.496 29.32,82.768 L29.32,63.328 Z" id="Path" fill="#262624"></path>
                        <path d="M45.88,51.88 C46.12,51.784 46.492,51.676 46.996,51.556 C47.5,51.436 48.04,51.376 48.616,51.376 C50.632,51.376 51.64,52.264 51.64,54.04 L51.64,72.544 C51.64,75.664 52.456,77.884 54.088,79.204 C55.72,80.524 57.976,81.184 60.856,81.184 C62.776,81.184 64.408,80.98 65.752,80.572 C67.096,80.164 68.152,79.744 68.92,79.312 L68.92,51.88 C69.16,51.784 69.532,51.676 70.036,51.556 C70.54,51.436 71.056,51.376 71.584,51.376 C73.648,51.376 74.68,52.264 74.68,54.04 L74.68,79.096 C74.68,80.104 74.548,80.908 74.284,81.508 C74.02,82.108 73.384,82.696 72.376,83.272 C71.272,83.896 69.748,84.496 67.804,85.072 C65.86,85.648 63.52,85.936 60.784,85.936 C55.984,85.936 52.3,84.88 49.732,82.768 C47.164,80.656 45.88,77.344 45.88,72.832 L45.88,51.88 Z" id="Path" fill="#72C5EF"></path>
                        <path d="M91.6,84.856 C91.36,84.952 91,85.06 90.52,85.18 C90.04,85.3 89.512,85.36 88.936,85.36 C86.872,85.36 85.84,84.496 85.84,82.768 L85.84,51.88 C86.08,51.784 86.452,51.676 86.956,51.556 C87.46,51.436 88,51.376 88.576,51.376 C90.592,51.376 91.6,52.264 91.6,54.04 L91.6,84.856 Z M84.976,41.224 C84.976,40.216 85.324,39.364 86.02,38.668 C86.716,37.972 87.616,37.624 88.72,37.624 C89.824,37.624 90.712,37.972 91.384,38.668 C92.056,39.364 92.392,40.216 92.392,41.224 C92.392,42.232 92.056,43.084 91.384,43.78 C90.712,44.476 89.824,44.824 88.72,44.824 C87.616,44.824 86.716,44.476 86.02,43.78 C85.324,43.084 84.976,42.232 84.976,41.224 Z" id="Shape" fill="#72C5EF"></path>
                        <path d="M114.208,85.936 C110.848,85.936 108.124,85.192 106.036,83.704 C103.948,82.216 102.904,79.744 102.904,76.288 L102.904,42.088 C103.144,41.992 103.516,41.884 104.02,41.764 C104.524,41.644 105.064,41.584 105.64,41.584 C107.656,41.584 108.664,42.448 108.664,44.176 L108.664,52.456 L120.472,52.456 C120.616,52.696 120.76,53.02 120.904,53.428 C121.048,53.836 121.12,54.28 121.12,54.76 C121.12,56.392 120.4,57.208 118.96,57.208 L108.664,57.208 L108.664,75.928 C108.664,77.848 109.204,79.204 110.284,79.996 C111.364,80.788 112.888,81.184 114.856,81.184 C115.672,81.184 116.584,81.04 117.592,80.752 C118.6,80.464 119.44,80.128 120.112,79.744 C120.4,80.032 120.664,80.392 120.904,80.824 C121.144,81.256 121.264,81.76 121.264,82.336 C121.264,83.392 120.64,84.256 119.392,84.928 C118.144,85.6 116.416,85.936 114.208,85.936 Z" id="Path" fill="#262624"></path>
                        <path d="M135.376,84.856 C135.136,84.952 134.776,85.06 134.296,85.18 C133.816,85.3 133.288,85.36 132.712,85.36 C130.648,85.36 129.616,84.496 129.616,82.768 L129.616,58.36 C129.616,57.256 129.82,56.38 130.228,55.732 C130.636,55.084 131.32,54.448 132.28,53.824 C133.528,53.008 135.22,52.3 137.356,51.7 C139.492,51.1 141.904,50.8 144.592,50.8 C148.432,50.8 150.352,51.76 150.352,53.68 C150.352,54.16 150.28,54.604 150.136,55.012 C149.992,55.42 149.8,55.768 149.56,56.056 C149.08,55.96 148.456,55.864 147.688,55.768 C146.92,55.672 146.152,55.624 145.384,55.624 C143.176,55.624 141.232,55.852 139.552,56.308 C137.872,56.764 136.48,57.304 135.376,57.928 L135.376,84.856 Z" id="Path" fill="#262624"></path>
                        <path d="M168.64,81.256 C170.656,81.256 172.324,81.052 173.644,80.644 C174.964,80.236 175.912,79.84 176.488,79.456 L176.488,69.016 L167.56,69.952 C165.064,70.192 163.216,70.756 162.016,71.644 C160.816,72.532 160.216,73.84 160.216,75.568 C160.216,77.392 160.912,78.796 162.304,79.78 C163.696,80.764 165.808,81.256 168.64,81.256 Z M168.568,50.8 C172.744,50.8 176.056,51.736 178.504,53.608 C180.952,55.48 182.176,58.432 182.176,62.464 L182.176,79.528 C182.176,80.584 181.972,81.388 181.564,81.94 C181.156,82.492 180.544,83.008 179.728,83.488 C178.576,84.16 177.052,84.748 175.156,85.252 C173.26,85.756 171.088,86.008 168.64,86.008 C164.128,86.008 160.636,85.12 158.164,83.344 C155.692,81.568 154.456,79 154.456,75.64 C154.456,72.472 155.488,70.084 157.552,68.476 C159.616,66.868 162.52,65.872 166.264,65.488 L176.488,64.48 L176.488,62.464 C176.488,60.064 175.768,58.312 174.328,57.208 C172.888,56.104 170.944,55.552 168.496,55.552 C166.48,55.552 164.584,55.84 162.808,56.416 C161.032,56.992 159.448,57.64 158.056,58.36 C157.672,58.024 157.324,57.64 157.012,57.208 C156.7,56.776 156.544,56.296 156.544,55.768 C156.544,55.096 156.712,54.544 157.048,54.112 C157.384,53.68 157.912,53.272 158.632,52.888 C159.928,52.216 161.416,51.7 163.096,51.34 C164.776,50.98 166.6,50.8 168.568,50.8 Z" id="Shape" fill="#262624"></path>
                        <path d="M199.024,84.856 C198.784,84.952 198.424,85.06 197.944,85.18 C197.464,85.3 196.936,85.36 196.36,85.36 C194.296,85.36 193.264,84.496 193.264,82.768 L193.264,38.344 C193.504,38.248 193.876,38.14 194.38,38.02 C194.884,37.9 195.4,37.84 195.928,37.84 C197.992,37.84 199.024,38.704 199.024,40.432 L199.024,84.856 Z" id="Path" fill="#262624"></path>
                    </g>
                    <g id="React-UI-suite" transform="translate(93, 89)" fill="#262624">
                        <path d="M3.382,20.964 C3.31,20.988 3.214,21.015 3.094,21.045 C2.974,21.075 2.842,21.09 2.698,21.09 C2.17,21.09 1.906,20.868 1.906,20.424 L1.906,10.848 C1.906,10.656 1.954,10.509 2.05,10.407 C2.146,10.305 2.296,10.224 2.5,10.164 C2.848,10.056 3.277,9.978 3.787,9.93 C4.297,9.882 4.792,9.858 5.272,9.858 C6.784,9.858 7.909,10.161 8.647,10.767 C9.385,11.373 9.754,12.234 9.754,13.35 C9.754,14.178 9.541,14.874 9.115,15.438 C8.689,16.002 8.044,16.404 7.18,16.644 C7.48,17.028 7.78,17.412 8.08,17.796 C8.38,18.18 8.665,18.543 8.935,18.885 C9.205,19.227 9.445,19.536 9.655,19.812 C9.865,20.088 10.03,20.304 10.15,20.46 C10.102,20.664 9.997,20.826 9.835,20.946 C9.673,21.066 9.508,21.126 9.34,21.126 C9.136,21.126 8.968,21.078 8.836,20.982 C8.704,20.886 8.566,20.736 8.422,20.532 L5.794,16.86 L3.382,16.86 L3.382,20.964 Z M5.434,15.636 C6.322,15.636 7.018,15.444 7.522,15.06 C8.026,14.676 8.278,14.106 8.278,13.35 C8.278,12.594 8.014,12.027 7.486,11.649 C6.958,11.271 6.202,11.082 5.218,11.082 C4.894,11.082 4.567,11.097 4.237,11.127 C3.907,11.157 3.616,11.196 3.364,11.244 L3.364,15.636 L5.434,15.636 Z" id="Shape"></path>
                        <path d="M13.102,17.688 C13.426,19.26 14.458,20.046 16.198,20.046 C16.702,20.046 17.158,19.962 17.566,19.794 C17.974,19.626 18.298,19.446 18.538,19.254 C18.826,19.422 18.97,19.65 18.97,19.938 C18.97,20.106 18.895,20.268 18.745,20.424 C18.595,20.58 18.391,20.718 18.133,20.838 C17.875,20.958 17.575,21.054 17.233,21.126 C16.891,21.198 16.522,21.234 16.126,21.234 C14.734,21.234 13.633,20.856 12.823,20.1 C12.013,19.344 11.608,18.24 11.608,16.788 C11.608,16.104 11.707,15.495 11.905,14.961 C12.103,14.427 12.379,13.974 12.733,13.602 C13.087,13.23 13.51,12.945 14.002,12.747 C14.494,12.549 15.028,12.45 15.604,12.45 C16.144,12.45 16.642,12.54 17.098,12.72 C17.554,12.9 17.947,13.155 18.277,13.485 C18.607,13.815 18.865,14.205 19.051,14.655 C19.237,15.105 19.33,15.6 19.33,16.14 C19.33,16.404 19.27,16.593 19.15,16.707 C19.03,16.821 18.862,16.89 18.646,16.914 L13.102,17.688 Z M15.586,13.62 C14.854,13.62 14.248,13.875 13.768,14.385 C13.288,14.895 13.036,15.624 13.012,16.572 L17.962,15.888 C17.902,15.228 17.671,14.685 17.269,14.259 C16.867,13.833 16.306,13.62 15.586,13.62 Z" id="Shape"></path>
                        <path d="M24.388,20.064 C24.892,20.064 25.309,20.013 25.639,19.911 C25.969,19.809 26.206,19.71 26.35,19.614 L26.35,17.004 L24.118,17.238 C23.494,17.298 23.032,17.439 22.732,17.661 C22.432,17.883 22.282,18.21 22.282,18.642 C22.282,19.098 22.456,19.449 22.804,19.695 C23.152,19.941 23.68,20.064 24.388,20.064 Z M24.37,12.45 C25.414,12.45 26.242,12.684 26.854,13.152 C27.466,13.62 27.772,14.358 27.772,15.366 L27.772,19.632 C27.772,19.896 27.721,20.097 27.619,20.235 C27.517,20.373 27.364,20.502 27.16,20.622 C26.872,20.79 26.491,20.937 26.017,21.063 C25.543,21.189 25,21.252 24.388,21.252 C23.26,21.252 22.387,21.03 21.769,20.586 C21.151,20.142 20.842,19.5 20.842,18.66 C20.842,17.868 21.1,17.271 21.616,16.869 C22.132,16.467 22.858,16.218 23.794,16.122 L26.35,15.87 L26.35,15.366 C26.35,14.766 26.17,14.328 25.81,14.052 C25.45,13.776 24.964,13.638 24.352,13.638 C23.848,13.638 23.374,13.71 22.93,13.854 C22.486,13.998 22.09,14.16 21.742,14.34 C21.646,14.256 21.559,14.16 21.481,14.052 C21.403,13.944 21.364,13.824 21.364,13.692 C21.364,13.524 21.406,13.386 21.49,13.278 C21.574,13.17 21.706,13.068 21.886,12.972 C22.21,12.804 22.582,12.675 23.002,12.585 C23.422,12.495 23.878,12.45 24.37,12.45 Z" id="Shape"></path>
                        <path d="M34.252,13.656 C33.844,13.656 33.466,13.725 33.118,13.863 C32.77,14.001 32.47,14.205 32.218,14.475 C31.966,14.745 31.768,15.081 31.624,15.483 C31.48,15.885 31.408,16.344 31.408,16.86 C31.408,17.892 31.666,18.681 32.182,19.227 C32.698,19.773 33.388,20.046 34.252,20.046 C34.756,20.046 35.176,19.977 35.512,19.839 C35.848,19.701 36.148,19.542 36.412,19.362 C36.544,19.434 36.652,19.524 36.736,19.632 C36.82,19.74 36.862,19.872 36.862,20.028 C36.862,20.196 36.796,20.352 36.664,20.496 C36.532,20.64 36.349,20.766 36.115,20.874 C35.881,20.982 35.605,21.069 35.287,21.135 C34.969,21.201 34.624,21.234 34.252,21.234 C33.628,21.234 33.052,21.144 32.524,20.964 C31.996,20.784 31.54,20.514 31.156,20.154 C30.772,19.794 30.472,19.341 30.256,18.795 C30.04,18.249 29.932,17.604 29.932,16.86 C29.932,16.128 30.046,15.489 30.274,14.943 C30.502,14.397 30.808,13.938 31.192,13.566 C31.576,13.194 32.029,12.915 32.551,12.729 C33.073,12.543 33.628,12.45 34.216,12.45 C34.588,12.45 34.933,12.483 35.251,12.549 C35.569,12.615 35.842,12.708 36.07,12.828 C36.298,12.948 36.475,13.083 36.601,13.233 C36.727,13.383 36.79,13.536 36.79,13.692 C36.79,13.836 36.748,13.962 36.664,14.07 C36.58,14.178 36.472,14.262 36.34,14.322 C36.076,14.142 35.788,13.986 35.476,13.854 C35.164,13.722 34.756,13.656 34.252,13.656 Z" id="Path"></path>
                        <path d="M41.848,21.234 C41.008,21.234 40.327,21.048 39.805,20.676 C39.283,20.304 39.022,19.686 39.022,18.822 L39.022,10.272 C39.082,10.248 39.175,10.221 39.301,10.191 C39.427,10.161 39.562,10.146 39.706,10.146 C40.21,10.146 40.462,10.362 40.462,10.794 L40.462,12.864 L43.414,12.864 C43.45,12.924 43.486,13.005 43.522,13.107 C43.558,13.209 43.576,13.32 43.576,13.44 C43.576,13.848 43.396,14.052 43.036,14.052 L40.462,14.052 L40.462,18.732 C40.462,19.212 40.597,19.551 40.867,19.749 C41.137,19.947 41.518,20.046 42.01,20.046 C42.214,20.046 42.442,20.01 42.694,19.938 C42.946,19.866 43.156,19.782 43.324,19.686 C43.396,19.758 43.462,19.848 43.522,19.956 C43.582,20.064 43.612,20.19 43.612,20.334 C43.612,20.598 43.456,20.814 43.144,20.982 C42.832,21.15 42.4,21.234 41.848,21.234 Z" id="Path"></path>
                        <path d="M58.048,17.22 C58.048,17.832 57.955,18.384 57.769,18.876 C57.583,19.368 57.307,19.788 56.941,20.136 C56.575,20.484 56.128,20.754 55.6,20.946 C55.072,21.138 54.466,21.234 53.782,21.234 C53.098,21.234 52.492,21.138 51.964,20.946 C51.436,20.754 50.992,20.484 50.632,20.136 C50.272,19.788 49.999,19.368 49.813,18.876 C49.627,18.384 49.534,17.832 49.534,17.22 L49.534,10.092 C49.594,10.068 49.687,10.041 49.813,10.011 C49.939,9.981 50.074,9.966 50.218,9.966 C50.734,9.966 50.992,10.188 50.992,10.632 L50.992,17.094 C50.992,17.574 51.064,17.994 51.208,18.354 C51.352,18.714 51.547,19.017 51.793,19.263 C52.039,19.509 52.333,19.692 52.675,19.812 C53.017,19.932 53.386,19.992 53.782,19.992 C54.178,19.992 54.547,19.932 54.889,19.812 C55.231,19.692 55.525,19.509 55.771,19.263 C56.017,19.017 56.212,18.714 56.356,18.354 C56.5,17.994 56.572,17.574 56.572,17.094 L56.572,10.092 C56.632,10.068 56.725,10.041 56.851,10.011 C56.977,9.981 57.112,9.966 57.256,9.966 C57.784,9.966 58.048,10.188 58.048,10.632 L58.048,17.22 Z" id="Path"></path>
                        <path d="M62.71,20.964 C62.65,20.988 62.56,21.015 62.44,21.045 C62.32,21.075 62.188,21.09 62.044,21.09 C61.516,21.09 61.252,20.868 61.252,20.424 L61.252,10.092 C61.312,10.068 61.405,10.041 61.531,10.011 C61.657,9.981 61.792,9.966 61.936,9.966 C62.452,9.966 62.71,10.188 62.71,10.632 L62.71,20.964 Z" id="Path"></path>
                        <path d="M75.166,18.786 C75.166,19.554 74.884,20.154 74.32,20.586 C73.756,21.018 72.94,21.234 71.872,21.234 C71.416,21.234 70.996,21.195 70.612,21.117 C70.228,21.039 69.901,20.937 69.631,20.811 C69.361,20.685 69.151,20.541 69.001,20.379 C68.851,20.217 68.776,20.052 68.776,19.884 C68.776,19.74 68.815,19.602 68.893,19.47 C68.971,19.338 69.088,19.224 69.244,19.128 C69.568,19.368 69.946,19.581 70.378,19.767 C70.81,19.953 71.302,20.046 71.854,20.046 C73.102,20.046 73.726,19.626 73.726,18.786 C73.726,18.102 73.312,17.658 72.484,17.454 L70.99,17.058 C70.258,16.866 69.724,16.587 69.388,16.221 C69.052,15.855 68.884,15.384 68.884,14.808 C68.884,14.496 68.947,14.196 69.073,13.908 C69.199,13.62 69.394,13.368 69.658,13.152 C69.922,12.936 70.249,12.765 70.639,12.639 C71.029,12.513 71.488,12.45 72.016,12.45 C72.856,12.45 73.534,12.573 74.05,12.819 C74.566,13.065 74.824,13.35 74.824,13.674 C74.824,13.83 74.785,13.968 74.707,14.088 C74.629,14.208 74.524,14.298 74.392,14.358 C74.176,14.214 73.87,14.058 73.474,13.89 C73.078,13.722 72.61,13.638 72.07,13.638 C71.53,13.638 71.101,13.74 70.783,13.944 C70.465,14.148 70.306,14.436 70.306,14.808 C70.306,15.084 70.396,15.318 70.576,15.51 C70.756,15.702 71.056,15.846 71.476,15.942 L72.718,16.248 C73.534,16.452 74.146,16.755 74.554,17.157 C74.962,17.559 75.166,18.102 75.166,18.786 Z" id="Path"></path>
                        <path d="M77.344,12.72 C77.404,12.696 77.497,12.669 77.623,12.639 C77.749,12.609 77.884,12.594 78.028,12.594 C78.532,12.594 78.784,12.816 78.784,13.26 L78.784,17.886 C78.784,18.666 78.988,19.221 79.396,19.551 C79.804,19.881 80.368,20.046 81.088,20.046 C81.568,20.046 81.976,19.995 82.312,19.893 C82.648,19.791 82.912,19.686 83.104,19.578 L83.104,12.72 C83.164,12.696 83.257,12.669 83.383,12.639 C83.509,12.609 83.638,12.594 83.77,12.594 C84.286,12.594 84.544,12.816 84.544,13.26 L84.544,19.524 C84.544,19.776 84.511,19.977 84.445,20.127 C84.379,20.277 84.22,20.424 83.968,20.568 C83.692,20.724 83.311,20.874 82.825,21.018 C82.339,21.162 81.754,21.234 81.07,21.234 C79.87,21.234 78.949,20.97 78.307,20.442 C77.665,19.914 77.344,19.086 77.344,17.958 L77.344,12.72 Z" id="Path"></path>
                        <path d="M88.774,20.964 C88.714,20.988 88.624,21.015 88.504,21.045 C88.384,21.075 88.252,21.09 88.108,21.09 C87.592,21.09 87.334,20.874 87.334,20.442 L87.334,12.72 C87.394,12.696 87.487,12.669 87.613,12.639 C87.739,12.609 87.874,12.594 88.018,12.594 C88.522,12.594 88.774,12.816 88.774,13.26 L88.774,20.964 Z M87.118,10.056 C87.118,9.804 87.205,9.591 87.379,9.417 C87.553,9.243 87.778,9.156 88.054,9.156 C88.33,9.156 88.552,9.243 88.72,9.417 C88.888,9.591 88.972,9.804 88.972,10.056 C88.972,10.308 88.888,10.521 88.72,10.695 C88.552,10.869 88.33,10.956 88.054,10.956 C87.778,10.956 87.553,10.869 87.379,10.695 C87.205,10.521 87.118,10.308 87.118,10.056 Z" id="Shape"></path>
                        <path d="M94.426,21.234 C93.586,21.234 92.905,21.048 92.383,20.676 C91.861,20.304 91.6,19.686 91.6,18.822 L91.6,10.272 C91.66,10.248 91.753,10.221 91.879,10.191 C92.005,10.161 92.14,10.146 92.284,10.146 C92.788,10.146 93.04,10.362 93.04,10.794 L93.04,12.864 L95.992,12.864 C96.028,12.924 96.064,13.005 96.1,13.107 C96.136,13.209 96.154,13.32 96.154,13.44 C96.154,13.848 95.974,14.052 95.614,14.052 L93.04,14.052 L93.04,18.732 C93.04,19.212 93.175,19.551 93.445,19.749 C93.715,19.947 94.096,20.046 94.588,20.046 C94.792,20.046 95.02,20.01 95.272,19.938 C95.524,19.866 95.734,19.782 95.902,19.686 C95.974,19.758 96.04,19.848 96.1,19.956 C96.16,20.064 96.19,20.19 96.19,20.334 C96.19,20.598 96.034,20.814 95.722,20.982 C95.41,21.15 94.978,21.234 94.426,21.234 Z" id="Path"></path>
                        <path d="M99.034,17.688 C99.358,19.26 100.39,20.046 102.13,20.046 C102.634,20.046 103.09,19.962 103.498,19.794 C103.906,19.626 104.23,19.446 104.47,19.254 C104.758,19.422 104.902,19.65 104.902,19.938 C104.902,20.106 104.827,20.268 104.677,20.424 C104.527,20.58 104.323,20.718 104.065,20.838 C103.807,20.958 103.507,21.054 103.165,21.126 C102.823,21.198 102.454,21.234 102.058,21.234 C100.666,21.234 99.565,20.856 98.755,20.1 C97.945,19.344 97.54,18.24 97.54,16.788 C97.54,16.104 97.639,15.495 97.837,14.961 C98.035,14.427 98.311,13.974 98.665,13.602 C99.019,13.23 99.442,12.945 99.934,12.747 C100.426,12.549 100.96,12.45 101.536,12.45 C102.076,12.45 102.574,12.54 103.03,12.72 C103.486,12.9 103.879,13.155 104.209,13.485 C104.539,13.815 104.797,14.205 104.983,14.655 C105.169,15.105 105.262,15.6 105.262,16.14 C105.262,16.404 105.202,16.593 105.082,16.707 C104.962,16.821 104.794,16.89 104.578,16.914 L99.034,17.688 Z M101.518,13.62 C100.786,13.62 100.18,13.875 99.7,14.385 C99.22,14.895 98.968,15.624 98.944,16.572 L103.894,15.888 C103.834,15.228 103.603,14.685 103.201,14.259 C102.799,13.833 102.238,13.62 101.518,13.62 Z" id="Shape"></path>
                    </g>
                </g>
                <g id="Light">
                    <g opacity="0.4" transform="translate(86.626, 80) rotate(-20) translate(-86.626, -80)translate(24.626, 18)" xlink:href="#path-1">
                        <use fill="black" fill-opacity="1" filter="url(#filter-2)" xlink:href="#path-1"></use>
                        <use fill="#F2F2F2" fill-rule="evenodd" xlink:href="#path-1"></use>
                    </g>
                    <g opacity="0.6" transform="translate(86.7238, 86.9736) rotate(-25) translate(-86.7238, -86.9736)translate(24.7238, 24.9736)" xlink:href="#path-3">
                        <use fill="black" fill-opacity="1" filter="url(#filter-4)" xlink:href="#path-3"></use>
                        <use fill="#F2F2F2" fill-rule="evenodd" xlink:href="#path-3"></use>
                    </g>
                    <g transform="translate(85, 94.3929) rotate(-30) translate(-85, -94.3929)translate(23, 32.3929)" xlink:href="#path-5">
                        <use fill="black" fill-opacity="1" filter="url(#filter-6)" xlink:href="#path-5"></use>
                        <use fill="#F2F2F2" fill-rule="evenodd" xlink:href="#path-5"></use>
                        <g id="Frame" transform="translate(28, 28)" fill-rule="evenodd">
                            <rect id="Rectangle-2" fill="#61DAFB" x="0" y="0" width="20" height="20" rx="4"></rect>
                            <rect id="Rectangle-2" fill="#1CA7EC" opacity="0.9" x="24" y="0" width="20" height="20" rx="8"></rect>
                            <rect id="Rectangle-2" fill="#007ACC" opacity="0.8" x="48" y="0" width="20" height="20" rx="10"></rect>
                            <rect id="Rectangle-2" fill="#61DAFB" opacity="0.7" x="0" y="24" width="20" height="20" rx="4"></rect>
                            <rect id="Rectangle-2" fill="#1CA7EC" opacity="0.6" x="24" y="24" width="20" height="20" rx="8"></rect>
                            <rect id="Rectangle-2" fill="#007ACC" opacity="0.5" x="48" y="24" width="20" height="20" rx="10"></rect>
                            <rect id="Rectangle-2" fill="#61DAFB" opacity="0.4" x="0" y="48" width="20" height="20" rx="4"></rect>
                            <rect id="Rectangle-2" fill="#1CA7EC" opacity="0.3" x="24" y="48" width="20" height="20" rx="8"></rect>
                            <rect id="Rectangle-2" fill="#007ACC" opacity="0.2" x="48" y="48" width="20" height="20" rx="10"></rect>
                        </g>
                    </g>
                </g>
            </g>
        </g>
    </g>
</svg>